<svg id="Layer_1" data-name="Layer 1" xmlns="http://www.w3.org/2000/svg" viewBox="0 0 600 624"><defs><style>.cls-1,.cls-4{fill:#67cdfd;}.cls-1,.cls-2,.cls-5,.cls-7{fill-rule:evenodd;}.cls-2,.cls-3{fill:#6c6c6a;}.cls-5{fill:#727270;}.cls-6,.cls-7{fill:#fefefe;}</style></defs><title>products-01</title><polygon class="cls-1" points="321.09 81.67 323.32 91.97 271.6 103.18 270.1 96.25 292.43 91.4 298.15 86.65 321.09 81.67"/><polygon class="cls-2" points="258.95 80.24 268.85 95.37 292.25 90.3 298.06 85.52 320.86 80.58 318.01 67.44 258.95 80.24"/><rect class="cls-3" x="260.61" y="88.2" width="1.68" height="14.04" transform="translate(-14.24 57.58) rotate(-12.24)"/><polygon class="cls-2" points="261.46 88.03 264.43 101.75 269.35 100.69 268.46 96.6 268.4 96.61 262.62 87.78 261.46 88.03"/><rect class="cls-3" x="260.61" y="88.2" width="1.68" height="14.04" transform="translate(-14.24 57.55) rotate(-12.23)"/><path class="cls-2" d="M290.93,99.92l12.26-2.66.51,2.34-3.52.76a2,2,0,0,0-3.77.82l-5,1.08Z"/><path class="cls-2" d="M300.66,100.91v7.78H296v-6.77l.47-.1a2,2,0,0,0,3.93-.53,2,2,0,0,0,0-.32Z"/><path class="cls-2" d="M291,40.67a57.65,57.65,0,1,1-57.65,57.65A57.65,57.65,0,0,1,291,40.67Zm5,68.85h48.62a54.72,54.72,0,1,0-1.39,5.34H296Z"/><circle class="cls-3" cx="298.4" cy="101.29" r="1.35"/><polygon class="cls-4" points="495.42 502.83 495.42 502.83 458.43 502.83 467.74 493.28 486.11 493.28 495.42 502.83"/><path class="cls-3" d="M511.22,482.49H442.5V436.93h68.72Zm1.23-52.55H441.28a4.91,4.91,0,0,0-4.9,4.9V486a4.91,4.91,0,0,0,4.9,4.9h71.17a4.91,4.91,0,0,0,4.9-4.9v-51.2a4.91,4.91,0,0,0-4.9-4.9Z"/><path class="cls-3" d="M282.62,487H296v11.76H282.62Zm-32.83,15.19h81V483.6h-81Z"/><path class="cls-4" d="M310.8,460.57h13.47v11.64H310.8Zm-61,15.19h81V457.14h-81Z"/><path class="cls-3" d="M270.13,445.75H256.65V434.11h13.48Zm-20.33-15.19v18.62h81V430.56Z"/><path class="cls-1" d="M136.88,437.26h0l1.22-1.59a1,1,0,0,1,1.35-.12l1.35,1a1.1,1.1,0,0,1,.12,1.35l-1.35,1.59a.82.82,0,0,1-1.22.12l-1.35-1a1,1,0,0,1-.12-1.35Zm-.37,9.8,9.56-12.13L139,429.42l-9.55,12Z"/><path class="cls-1" d="M128.18,430.4h0l1.1-1.59c.49-.49,1-.61,1.47-.12l1.22,1c.49.24.49.86.13,1.35l-1.23,1.59a1.1,1.1,0,0,1-1.35.12l-1.22-1a.88.88,0,0,1-.12-1.35Zm9.43-2.2L130.87,423l-9.43,12,6.62,5.27Z"/><path class="cls-5" d="M88.25,484.42h0a3.88,3.88,0,0,1,3.19-2,4.32,4.32,0,0,1,4.9,3.8,4.28,4.28,0,0,1-3.92,4.9,4.3,4.3,0,0,1-4.78-3.92,3.87,3.87,0,0,1,.61-2.82ZM85.06,482a7.92,7.92,0,0,0-1.47,5.76,8.24,8.24,0,0,0,9.31,7.35,8.46,8.46,0,0,0,5.39-2.69L104,497l34.3-43.49-4.29-3.31L127,444.6l-1.47-1.22L119,438.24l-4.29-3.31-34.3,43.36Z"/><path class="cls-1" d="M86.91,237.26h0a5.36,5.36,0,0,1,1.6-3.8A5.18,5.18,0,0,1,92.17,232a8.11,8.11,0,0,1,1.72.12.91.91,0,0,0,1.22-.73,1.06,1.06,0,0,0-.86-1.22,5.33,5.33,0,0,0-2.08-.25A6.93,6.93,0,0,0,87,232a7.33,7.33,0,0,0-2.2,5.27,5.72,5.72,0,0,0,.37,2.08.87.87,0,0,0,1,.86l.24-.12a.94.94,0,0,0,.73-1.23,6.23,6.23,0,0,1-.24-1.59Z"/><path class="cls-5" d="M139.34,299.86h-30.5a.45.45,0,0,0-.37-.12c-1-.12-1.1-.37-1.1-1h0a1.62,1.62,0,0,1,.37-1v-.12l5.51-9.43c1.1-2,2.94-5.27,4.16-7.22l1.59-2.82a38.41,38.41,0,0,0,5.51-2.82c.24-.24.62-.37.86-.61a5.21,5.21,0,0,1,.86-.49,1.66,1.66,0,0,1,.37-.49l4.16,7.23c1.22,2,3.06,5.27,4.17,7.22l5.51,9.56a2.44,2.44,0,0,1,.37,1c0,.62-.12,1-1.47,1.11Z"/><path class="cls-5" d="M105.89,296.67h0a3.66,3.66,0,0,0-.49,1h-.86c-1.35-.12-1.47-.37-1.59-1a11.27,11.27,0,0,1,.37-1.1l5.51-9.55c1-1.59,2.57-4.29,3.68-6.25,1.1-.12,2.33-.37,3.55-.61l-.49.73c-1.22,2.09-3.06,5.27-4.16,7.23Z"/><path class="cls-1" d="M104.91,279.15h0a10.61,10.61,0,0,1-2,.12h-1.84a13,13,0,0,1-8.57-3.55C90.09,273.28,89,270,89,266a24.6,24.6,0,0,1,1.59-8.58,20.15,20.15,0,0,0-.86,5.88c0,3.67,1,6.86,3.43,9.31a10.75,10.75,0,0,0,5,2.81,2.92,2.92,0,0,0,1.47.37,4.25,4.25,0,0,0,1.22.24h1.6a24.23,24.23,0,0,0,11.88-3.43l1.84-1.11c1-.61,1.84-1.35,2.81-2.08.25-.25.61-.37,1-.73.74-.61,1.59-1.35,2.33-2.08,6-6.12,9.43-13.59,9.43-20a17.56,17.56,0,0,0-.37-3.55c-.12-.37-.25-.86-.37-1.22s-.37-.86-.61-1.35a12.34,12.34,0,0,0-2.08-3.06,13,13,0,0,0-9.19-3.43,25.54,25.54,0,0,0-13.72,4.41c5.88-4.17,12.13-6.37,17.39-6.37,4,0,7.35,1.22,9.68,3.55a13.11,13.11,0,0,1,3.68,8.58v1.84a10.51,10.51,0,0,1-.12,2c-.86,6.49-4.65,14-10.9,20.34-.74.73-1.6,1.47-2.45,2.2-.24.12-.37.37-.61.49a5.31,5.31,0,0,0-.86.73,3.56,3.56,0,0,1-.86.62c-.24.25-.49.37-.61.49a34.43,34.43,0,0,1-4.9,2.94,9.81,9.81,0,0,1-1.59.86,9.48,9.48,0,0,1-1.71.61,23.38,23.38,0,0,1-6.62,1.84Z"/><path class="cls-5" d="M96.58,250h0l1.59,6,1,3.8.49,1.59.37,1.72,1.22,4.78,1.11-.25,1-.24-.12-.62L101.36,260l-.37-1.59L100.5,257l-.37-1.59-2.08-7.47-.24-1.35-.24-.73-.13-.49-.12-.86L97,243.26l-.25-.73.49.49.74.73.49.62.25.12.49.61.86.73,5,5,.73.86.73.73,8.57,8.82,1.47-1.47L108,250.86l-.73-.73-.74-.73-5.14-5-.61-.86-.61-.49-.12-.24-.61-.49-.73-.73-.37-.49.49.24,1.22.24,1,.24.24.12,1,.25,1.22.37,7.59,2.08,1.11.24,1.35.37,1.35.37,6.37,1.71.61.12.24-1,.37-1-4.78-1.35-1.59-.37-1.47-.49-2.94-.73-6-1.59a24.07,24.07,0,0,1,13.47-4.78,11.08,11.08,0,0,1,7.72,2.81c.24.37.61.74.86,1.11l.73,1.1c.12.37.37.86.49,1.22a12.64,12.64,0,0,1,.74,4.29c0,5.63-3.06,12.74-8.94,18.37C115,270.95,108,274,102.47,274a20.26,20.26,0,0,1-2.82-.24,6.79,6.79,0,0,1-1.22-.37L97.32,273a10,10,0,0,1-2.69-2,10.45,10.45,0,0,1-2.82-7.72c0-4,1.59-8.82,4.78-13.35Z"/><path class="cls-1" d="M96.71,239.71h0a2.44,2.44,0,0,1-.49,1h0a1.39,1.39,0,0,1-1,.37h0a1.3,1.3,0,0,1-1.47-1.47,1.4,1.4,0,0,1,.37-1,1.49,1.49,0,0,1,1.1-.49,1.73,1.73,0,0,1,1.47,1.47Z"/><path class="cls-1" d="M82.62,236a8,8,0,0,1,2.21-5.76A7.85,7.85,0,0,1,90.58,228a7.51,7.51,0,0,1,2.33.25,1.06,1.06,0,0,0,1.35-.73,1.08,1.08,0,0,0-.73-1.22,12,12,0,0,0-2.94-.37,10.31,10.31,0,0,0-7.23,2.94A9.79,9.79,0,0,0,80.54,236a12.85,12.85,0,0,0,.37,2.94,1.07,1.07,0,0,0,1,.74h.24a1.19,1.19,0,0,0,.86-1.23,9.15,9.15,0,0,1-.37-2.45Z"/><path class="cls-3" d="M516.58,307.78V246.29a4.89,4.89,0,0,0-4.78-4.9H440.39a4.89,4.89,0,0,0-4.78,4.9v61.49a4.81,4.81,0,0,0,4.78,4.9H511.8a4.81,4.81,0,0,0,4.78-4.9Z"/><path class="cls-4" d="M511.8,306.19h0a3.29,3.29,0,0,1-3.3,3.31,3.25,3.25,0,0,1,0-6.49,3.27,3.27,0,0,1,3.3,3.18Z"/><polygon class="cls-6" points="511.8 299.7 511.8 299.7 440.39 299.7 440.39 246.29 511.8 246.29 511.8 299.7"/><path class="cls-4" d="M487.43,306.19h0a3.25,3.25,0,0,1,6.49,0,3.25,3.25,0,1,1-6.49,0Z"/><path class="cls-4" d="M496.37,306.19h0a3.16,3.16,0,0,1,3.19-3.18,3.25,3.25,0,1,1,0,6.49,3.19,3.19,0,0,1-3.19-3.31Z"/><path class="cls-5" d="M513.1,57.44H439c-2.8,0-5.6,2.38-5.6,5.18v63.85a5.66,5.66,0,0,0,5.6,5.32H513.1a5,5,0,0,0,4.9-5.18v-64a5,5,0,0,0-4.9-5.18Z"/><path class="cls-7" d="M509.6,67.66h0a3.36,3.36,0,0,1,0-6.72,3.36,3.36,0,1,1,0,6.72Z"/><polygon class="cls-7" points="512.68 125.91 512.68 125.91 438.75 125.91 438.75 71.31 512.68 71.31 512.68 125.91"/><path class="cls-7" d="M448.55,60.52h0a3.36,3.36,0,1,1,0,6.72,3.36,3.36,0,0,1,0-6.72Z"/><path class="cls-7" d="M491.26,60.94h0a3.36,3.36,0,1,1-3.36,3.36,3.29,3.29,0,0,1,3.36-3.36Z"/><path class="cls-7" d="M500.5,60.94h0a3.36,3.36,0,1,1-3.5,3.36,3.41,3.41,0,0,1,3.5-3.36Z"/><polygon class="cls-1" points="495.46 90.63 477.54 77.75 455.98 77.75 455.98 121.01 495.46 121.01 495.46 90.63"/><polygon class="cls-7" points="485.38 108.13 485.38 108.13 465.49 108.13 465.49 105.05 485.38 105.05 485.38 108.13"/><polygon class="cls-7" points="485.38 114.57 485.38 114.57 465.49 114.57 465.49 111.35 485.38 111.35 485.38 114.57"/><polygon class="cls-7" points="465.49 86.29 465.49 86.29 473.62 86.29 473.62 94.83 465.49 94.83 465.49 86.29"/><path class="cls-5" d="M135.5,78.32a4.34,4.34,0,0,0-1.35-2c-5.39-4.29-10.9-6.62-16.42-7.11-.86-3.3-.86-5.63,0-7.35s2.94-2.94,6.25-4c6.24-1.59,10.66-6,11.51-11,.74-4.65-1.59-9.06-6.61-12.37a2.32,2.32,0,0,0-3.43.73,2.43,2.43,0,0,0,.73,3.43c2.21,1.47,4.9,4,4.41,7.47-.61,2.94-3.67,5.76-8,6.74V53c-4.65,1.47-7.84,3.68-9.31,6.61-1.35,2.57-1.6,5.88-.74,9.8-5.39.62-10.66,2.94-15.92,7a4.35,4.35,0,0,0-1.35,2,70.25,70.25,0,0,0-2.21,26.83c1,8.21,3.43,16.54,6.12,26a3.29,3.29,0,0,0,1.23,1.84,25.42,25.42,0,0,0,30,0,3.49,3.49,0,0,0,1.35-1.84c2.57-9.43,4.9-17.76,5.88-26a65.69,65.69,0,0,0-2.21-26.83Z"/><path class="cls-1" d="M118.85,96.33a3.3,3.3,0,0,1-3.43,3.19,3.09,3.09,0,0,1-3.19-3.19V82.48a3.2,3.2,0,0,1,3.19-3.31,3.4,3.4,0,0,1,3.43,3.31Z"/><path class="cls-2" d="M320.73,319.72H261.07c-2.45,0-4-1.47-4-3.67a6.2,6.2,0,0,1,.25-1.35l3.43-11.64c.73-2.69,3.92-4.9,6.74-4.9H314a7.6,7.6,0,0,1,6.86,4.9l3.55,11.64a6.48,6.48,0,0,1,.37,1.47,3.76,3.76,0,0,1-4,3.55Zm-53.65-17.88h47.16a4.56,4.56,0,0,1,4.41,4.41,4.47,4.47,0,0,1-4.41,4.41H267.07a4.39,4.39,0,0,1-4.41-4.41,4.47,4.47,0,0,1,4.41-4.41Zm20.09,12.37h6.61a2.2,2.2,0,0,1,2.21,2.2v2.33H284.84v-2.33a2.3,2.3,0,0,1,2.33-2.2Zm26.71-15.56H267.44a6.94,6.94,0,0,0-6.24,4.78l-3.43,11.51a4.19,4.19,0,0,0-.12,1.22,3.29,3.29,0,0,0,3.55,3.31h59.29a3.09,3.09,0,0,0,3.43-3.18,5.07,5.07,0,0,0-.12-1.35l-3.55-11.51a7.23,7.23,0,0,0-6.37-4.78Zm16.9,19.48L325.63,300a7.08,7.08,0,0,0-6.37-4.9H261.44a6.83,6.83,0,0,0-6.37,4.9l-4.9,18.13a3.64,3.64,0,0,0,3.67,4.9H327.1c2.81,0,4.41-2.08,3.67-4.9Z"/><path class="cls-1" d="M257.64,249.78H323.3v37.85H257.64Zm-3.06,43.73h71.66a3,3,0,0,0,3.06-2.94V246.84a3,3,0,0,0-3.06-3.06H254.58a3,3,0,0,0-2.94,3.06v43.73a3,3,0,0,0,2.94,2.94Z"/></svg>