<svg xmlns="http://www.w3.org/2000/svg" viewBox="0 0 5894.57 2584.41"><defs><style>.cls-1{fill:#00a7b8;}.cls-2{fill:#45ad4e;}.cls-3{fill:none;stroke:#fff;stroke-miterlimit:10;stroke-width:100px;}</style></defs><title>LOGO</title><g id="Layer_2" data-name="Layer 2"><path class="cls-1" d="M5730.9,1611.13a236.88,236.88,0,0,1-5.83-337.93c104.66-103.79,169.49-247.54,169.49-406.53,0-316.24-256.34-572.58-572.6-572.58s-572.51,256.34-572.51,572.58c0,159.77,65.58,304.11,171.15,408a237,237,0,0,1,.28,328.95c-2.32,2.31-4.71,4.67-7.09,7.06a236.52,236.52,0,0,1-164.33,66.24c-69.37,0-131.6-29.93-175-77.34l-.38.39c-103-99.29-242.8-160.68-397.19-160.68-316.19,0-572.54,256.38-572.54,572.54s256.35,572.61,572.54,572.61c153.83,0,293.26-61,396.16-159.73l.57.57c43.44-48,106-78.36,175.85-78.36a236.93,236.93,0,0,1,171.91,73.82l.11-.14C5024.77,2521.82,5166,2584.41,5322,2584.41c316.26,0,572.6-256.39,572.6-572.58,0-156-62.58-297.3-163.73-400.55Z"/><path class="cls-2" d="M3890.58,1153C3574.35,1153,3318,896.64,3318,580.37S3574.35,7.86,3890.58,7.86s572.61,256.37,572.61,572.52S4206.84,1153,3890.58,1153Z"/><path class="cls-3" d="M5608.34,866.68c0,158.11-128.16,286.31-286.31,286.31S5035.8,1024.79,5035.8,866.68,5163.92,580.37,5322,580.37,5608.34,708.53,5608.34,866.68Z"/><path class="cls-3" d="M4176.88,580.41c0,158.11-128.16,286.3-286.31,286.3s-286.23-128.19-286.23-286.3,128.12-286.29,286.23-286.29S4176.88,422.3,4176.88,580.41Z"/><path class="cls-3" d="M4451.49,2011.83c0,158.15-128.12,286.31-286.23,286.31S3879,2170,3879,2011.83s128.16-286.27,286.27-286.27S4451.49,1853.68,4451.49,2011.83Z"/><path class="cls-3" d="M5608.34,2011.83c0,158.15-128.16,286.31-286.31,286.31S5035.8,2170,5035.8,2011.83s128.12-286.27,286.23-286.27S5608.34,1853.68,5608.34,2011.83Z"/></g><g id="Capa_1" data-name="Capa 1"><path class="cls-1" d="M2412.9,1603.28a236.88,236.88,0,0,1-5.83-337.93c104.66-103.79,169.49-247.54,169.49-406.53,0-316.24-256.34-572.58-572.6-572.58s-572.51,256.34-572.51,572.58c0,159.77,65.58,304.11,171.15,408a237,237,0,0,1,.28,328.95c-2.32,2.31-4.71,4.67-7.09,7.06A236.52,236.52,0,0,1,1431.46,1669c-69.37,0-131.6-29.93-175-77.34l-.38.39c-103-99.29-242.8-160.68-397.19-160.68-316.19,0-572.54,256.38-572.54,572.54s256.35,572.61,572.54,572.61c153.83,0,293.26-61,396.16-159.73l.57.57c43.44-48,106-78.36,175.85-78.36a236.93,236.93,0,0,1,171.91,73.82l.11-.14C1706.77,2514,1848,2576.55,2004,2576.55c316.26,0,572.6-256.39,572.6-572.58,0-156-62.58-297.3-163.73-400.55Z"/><path class="cls-2" d="M572.58,1145.13C256.35,1145.13,0,888.78,0,572.52S256.35,0,572.58,0s572.61,256.37,572.61,572.52S888.84,1145.13,572.58,1145.13Z"/><path class="cls-3" d="M2290.34,858.82c0,158.11-128.16,286.31-286.31,286.31S1717.8,1016.94,1717.8,858.82,1845.92,572.52,2004,572.52,2290.34,700.67,2290.34,858.82Z"/><path class="cls-3" d="M858.88,572.56c0,158.11-128.16,286.3-286.31,286.3S286.34,730.67,286.34,572.56,414.46,286.27,572.58,286.27,858.88,414.44,858.88,572.56Z"/><path class="cls-3" d="M1133.49,2004c0,158.15-128.12,286.31-286.23,286.31S561,2162.13,561,2004s128.16-286.27,286.27-286.27S1133.49,1845.83,1133.49,2004Z"/><path class="cls-3" d="M2290.34,2004c0,158.15-128.16,286.31-286.31,286.31S1717.8,2162.13,1717.8,2004s128.12-286.27,286.23-286.27S2290.34,1845.83,2290.34,2004Z"/></g></svg>