<svg id="Layer_1" data-name="Layer 1" xmlns="http://www.w3.org/2000/svg" viewBox="0 0 2863.02 2863"><defs><style>.cls-1{fill:#00a7b8;}.cls-2{fill:#45ad4e;}.cls-3{fill:none;stroke:#fff;stroke-miterlimit:10;stroke-width:100px;}</style></defs><title>logo</title><path class="cls-1" d="M2681.16,1781.52c-50.37-48.07-82-115.79-82-191,0-71.89,28.92-136.9,75.56-184.51C2791,1290.7,2863,1131,2863,954.3c0-351.4-284.84-636.24-636.26-636.24S1590.6,602.9,1590.6,954.3c0,177.53,72.87,337.92,190.17,453.32,45.65,47.5,73.91,111.81,73.91,182.91a262.84,262.84,0,0,1-73.6,182.6c-2.58,2.57-5.23,5.19-7.88,7.84a262.82,262.82,0,0,1-182.6,73.6c-77.08,0-146.23-33.25-194.46-85.94l-.43.44c-114.42-110.33-269.79-178.54-441.34-178.54-351.34,0-636.19,284.88-636.19,636.19S603,2863,954.37,2863c170.94,0,325.87-67.79,440.2-177.49l.63.63c48.27-53.35,117.78-87.07,195.4-87.07,75.2,0,142.92,31.6,191,82l.12-.16c114.77,112.51,271.7,182.06,445,182.06,351.42,0,636.26-284.89,636.26-636.23,0-173.39-69.53-330.36-181.93-445.08Z"/><path class="cls-2" d="M636.23,1272.44C284.85,1272.44,0,987.59,0,636.17S284.85,0,636.23,0,1272.5,284.87,1272.5,636.17,987.66,1272.44,636.23,1272.44Z"/><path class="cls-3" d="M2545,954.3c0,175.69-142.4,318.14-318.14,318.14S1908.77,1130,1908.77,954.3s142.36-318.14,318.05-318.14S2545,778.57,2545,954.3Z"/><path class="cls-3" d="M954.37,636.21c0,175.69-142.4,318.13-318.14,318.13S318.18,811.9,318.18,636.21,460.54,318.09,636.23,318.09,954.37,460.52,954.37,636.21Z"/><path class="cls-3" d="M1259.51,2226.77c0,175.73-142.36,318.14-318.06,318.14s-318.1-142.4-318.1-318.14,142.4-318.09,318.1-318.09S1259.51,2051,1259.51,2226.77Z"/><path class="cls-3" d="M2545,2226.77c0,175.73-142.4,318.14-318.14,318.14s-318.05-142.4-318.05-318.14,142.36-318.09,318.05-318.09S2545,2051,2545,2226.77Z"/></svg>