<svg id="Capa_1" data-name="Capa 1" xmlns="http://www.w3.org/2000/svg" viewBox="0 0 2576.57 2576.55"><defs><style>.cls-1{fill:#00a7b8;}.cls-2{fill:#45ad4e;}.cls-3{fill:none;stroke:#fff;stroke-miterlimit:10;stroke-width:100px;}</style></defs><title>logosub</title><path class="cls-1" d="M3084.62,2155a236.88,236.88,0,0,1-5.83-337.93c104.66-103.79,169.49-247.54,169.49-406.53,0-316.24-256.34-572.58-572.6-572.58s-572.51,256.34-572.51,572.58c0,159.77,65.58,304.11,171.15,408a237,237,0,0,1,.28,328.95c-2.32,2.31-4.71,4.67-7.09,7.06a236.52,236.52,0,0,1-164.33,66.24c-69.37,0-131.6-29.93-175-77.34l-.38.39c-103-99.29-242.8-160.68-397.19-160.68-316.19,0-572.54,256.38-572.54,572.54s256.35,572.61,572.54,572.61c153.83,0,293.26-61,396.16-159.73l.57.57c43.44-48,106-78.36,175.85-78.36a236.93,236.93,0,0,1,171.91,73.82l.11-.14c103.29,101.26,244.51,163.85,400.49,163.85,316.26,0,572.6-256.39,572.6-572.58,0-156-62.58-297.3-163.73-400.55Z" transform="translate(-671.72 -551.73)"/><path class="cls-2" d="M1244.29,1696.86c-316.22,0-572.58-256.35-572.58-572.61s256.35-572.52,572.58-572.52S1816.9,808.1,1816.9,1124.25,1560.56,1696.86,1244.29,1696.86Z" transform="translate(-671.72 -551.73)"/><path class="cls-3" d="M2962.05,1410.55c0,158.11-128.16,286.31-286.31,286.31s-286.23-128.19-286.23-286.31,128.12-286.31,286.23-286.31S2962.05,1252.4,2962.05,1410.55Z" transform="translate(-671.72 -551.73)"/><path class="cls-3" d="M1530.6,1124.29c0,158.11-128.16,286.3-286.31,286.3s-286.23-128.19-286.23-286.3S1086.18,838,1244.29,838,1530.6,966.17,1530.6,1124.29Z" transform="translate(-671.72 -551.73)"/><path class="cls-3" d="M1805.21,2555.71c0,158.15-128.12,286.31-286.23,286.31s-286.27-128.16-286.27-286.31,128.16-286.27,286.27-286.27S1805.21,2397.55,1805.21,2555.71Z" transform="translate(-671.72 -551.73)"/><path class="cls-3" d="M2962.05,2555.71c0,158.15-128.16,286.31-286.31,286.31s-286.23-128.16-286.23-286.31,128.12-286.27,286.23-286.27S2962.05,2397.55,2962.05,2555.71Z" transform="translate(-671.72 -551.73)"/></svg>