<svg xmlns="http://www.w3.org/2000/svg" viewBox="0 0 12341.15 2909"><defs><style>.cls-1{fill:#00a7b8;}.cls-2{fill:#45ad4e;}.cls-3{fill:none;stroke:#fff;stroke-miterlimit:10;stroke-width:100px;}.cls-4{fill:#6f6f6e;}</style></defs><title>LOGO-nombre</title><g id="Layer_1" data-name="Layer 1"><path class="cls-1" d="M2681.16,1781.52c-50.37-48.07-82-115.79-82-191,0-71.89,28.92-136.9,75.56-184.51C2791,1290.7,2863,1131,2863,954.3c0-351.4-284.84-636.24-636.26-636.24S1590.6,602.9,1590.6,954.3c0,177.53,72.87,337.92,190.17,453.32,45.65,47.5,73.91,111.81,73.91,182.91a262.84,262.84,0,0,1-73.6,182.6c-2.58,2.57-5.23,5.19-7.88,7.84a262.82,262.82,0,0,1-182.6,73.6c-77.08,0-146.23-33.25-194.46-85.94l-.43.44c-114.42-110.33-269.79-178.54-441.34-178.54-351.34,0-636.19,284.88-636.19,636.19S603,2863,954.37,2863c170.94,0,325.87-67.79,440.2-177.49l.63.63c48.27-53.35,117.78-87.07,195.4-87.07,75.2,0,142.92,31.6,191,82l.12-.16c114.77,112.51,271.7,182.06,445,182.06,351.42,0,636.26-284.89,636.26-636.23,0-173.39-69.53-330.36-181.93-445.08Z"/><path class="cls-2" d="M636.23,1272.44C284.85,1272.44,0,987.59,0,636.17S284.85,0,636.23,0,1272.5,284.87,1272.5,636.17,987.66,1272.44,636.23,1272.44Z"/><path class="cls-3" d="M2545,954.3c0,175.69-142.4,318.14-318.14,318.14S1908.77,1130,1908.77,954.3s142.36-318.14,318.05-318.14S2545,778.57,2545,954.3Z"/><path class="cls-3" d="M954.37,636.21c0,175.69-142.4,318.13-318.14,318.13S318.18,811.9,318.18,636.21,460.54,318.09,636.23,318.09,954.37,460.52,954.37,636.21Z"/><path class="cls-3" d="M1259.51,2226.77c0,175.73-142.36,318.14-318.06,318.14s-318.1-142.4-318.1-318.14,142.4-318.09,318.1-318.09S1259.51,2051,1259.51,2226.77Z"/><path class="cls-3" d="M2545,2226.77c0,175.73-142.4,318.14-318.14,318.14s-318.05-142.4-318.05-318.14,142.36-318.09,318.05-318.09S2545,2051,2545,2226.77Z"/></g><g id="Layer_2" data-name="Layer 2"><path class="cls-4" d="M4625.18,2636.49c0,149.67-241.87,272.51-545.1,272.51-299.45,0-545.12-122.85-545.12-272.51V2260.26c0-23,88.3-46,191.93-46,107.52,0,192,23.06,192,46v222.68c0,46.07,72.93,84.46,161.23,84.46,92.13,0,161.2-38.39,161.2-80.62V1838c0-46.09-69.07-84.46-161.2-84.46-299.45,0-545.12-122.83-545.12-276.39v-929c0-153.53,245.67-276.37,545.12-276.37,303.23,0,545.1,122.85,545.1,276.37V920.55c0,26.88-84.44,49.9-192,49.9-103.64,0-192-23-192-49.9V694.07c0-42.23-69.07-80.64-161.2-80.64-88.3,0-161.23,38.41-161.23,84.46v629.58c0,46,72.93,84.44,161.23,84.44,303.23,0,545.1,122.84,545.1,272.55Z"/><path class="cls-4" d="M6037.87,2636.49c0,149.67-241.83,272.51-545.12,272.51s-545.1-122.85-545.1-272.51V548.19c0-153.53,241.83-276.37,545.1-276.37s545.12,122.85,545.12,276.37ZM5654,697.9c0-46.05-72.93-84.46-161.25-84.46s-161.23,38.41-161.23,80.64V2486.78c0,42.23,72.93,80.62,161.23,80.62S5654,2529,5654,2486.78Z"/><path class="cls-4" d="M7511.94,2636.49c0,149.67-241.85,272.51-545.1,272.51s-545.06-122.85-545.06-272.51V340.93c0-23.08,88.26-46.09,191.93-46.09s191.9,23,191.9,46.09V2486.78c0,42.23,72.93,80.62,161.23,80.62s161.27-38.39,161.27-84.46V2260.26c0-23,88.26-46,191.86-46s192,23.06,192,46Z"/><path class="cls-4" d="M8153.06,2840c0,26.82-88.26,49.92-192,49.92s-191.89-23.1-191.89-49.92v-2499c0-23.08,88.26-46.09,191.89-46.09s192,23,192,46.09Z"/><path class="cls-4" d="M9546.52,651.84h-357V2840c0,26.82-88.26,49.92-191.86,49.92s-192-23.1-192-49.92V651.84h-357c-23,0-46-76.79-46-172.76,0-92.13,23.06-168.88,46-168.88H9546.52c23,0,46.07,76.75,46.07,172.72S9569.53,651.84,9546.52,651.84Z"/><path class="cls-4" d="M10932.33,2636.49c0,149.67-241.85,272.51-545.1,272.51s-545.06-122.85-545.06-272.51V548.19c0-153.53,241.77-276.37,545.06-276.37s545.1,122.85,545.1,276.37V920.55c0,26.88-88.26,49.9-192,49.9s-191.9-23-191.9-49.9V697.9c0-46.05-72.93-84.46-161.23-84.46S10226,651.84,10226,694.07v691h514.36c23.09,0,42.27,76.76,42.27,172.72s-19.17,168.93-42.27,168.93H10226v760.07c0,42.23,72.93,80.62,161.23,80.62s161.23-38.39,161.23-84.46V2260.26c0-23,88.3-46,191.9-46s192,23.06,192,46Z"/><path class="cls-4" d="M12341.15,2636.49c0,149.67-241.81,272.51-545.06,272.51S11251,2786.15,11251,2636.49V340.93c0-23.08,88.3-46.09,191.93-46.09s191.93,23,191.93,46.09V2486.78c0,42.23,73,80.62,161.27,80.62s161.19-38.39,161.19-84.46V2260.26c0-23,88.26-46,192-46s191.9,23.06,191.9,46Z"/></g></svg>